HIERARCHY
ROOT Pelvis
{
	OFFSET 0.000000 0.000000 0.000000
	CHANNELS 6 Xposition Yposition Zposition Xrotation Yrotation Zrotation
	JOINT LeftUpLeg_virtual
	{
		OFFSET 0.000000 0.000000 0.000000
		CHANNELS 3 Xrotation Yrotation Zrotation
		JOINT LeftUpLeg
		{
			OFFSET 18.735201 -5.666702 -4.541200
			CHANNELS 3 Xrotation Yrotation Zrotation
			JOINT LeftLeg
			{
				OFFSET -0.021200 -31.938179 0.493100
				CHANNELS 3 Xrotation Yrotation Zrotation
				JOINT LeftFoot
				{
					OFFSET 0.021200 -31.938179 -4.336299
					CHANNELS 3 Xrotation Yrotation Zrotation
					JOINT LeftToeBase
					{
						OFFSET 0.943001 -26.722000 15.023500
						CHANNELS 3 Xrotation Yrotation Zrotation
						End Site
						{
							OFFSET 0 0 0
						}
					}
				}
			}
		}
	}
	JOINT RightUpLeg_virtual
	{
		OFFSET 0.000000 0.000000 0.000000
		CHANNELS 3 Xrotation Yrotation Zrotation
		JOINT RightUpLeg
		{
			OFFSET -18.735201 -5.666702 -4.541200
			CHANNELS 3 Xrotation Yrotation Zrotation
			JOINT RightLeg
			{
				OFFSET 0.018946 -31.938133 0.493100
				CHANNELS 3 Xrotation Yrotation Zrotation
				JOINT RightFoot
				{
					OFFSET -0.018946 -31.938126 -4.336299
					CHANNELS 3 Xrotation Yrotation Zrotation
					JOINT RightToeBase
					{
						OFFSET -0.943001 -26.722004 15.023500
						CHANNELS 3 Xrotation Yrotation Zrotation
						End Site
						{
							OFFSET 0 0 0
						}
					}
				}
			}
		}
	}
	JOINT Hips_virtual
	{
		OFFSET 0.000000 0.000000 0.000000
		CHANNELS 3 Xrotation Yrotation Zrotation
		JOINT Hips
		{
			OFFSET -0.000000 -0.000000 -0.000000
			CHANNELS 3 Xrotation Yrotation Zrotation
			JOINT Spine
			{
				OFFSET 0.000000 10.199997 -0.299500
				CHANNELS 3 Xrotation Yrotation Zrotation
				JOINT Spine1
				{
					OFFSET 0.000000 11.900002 -1.516600
					CHANNELS 3 Xrotation Yrotation Zrotation
					JOINT Spine2
					{
						OFFSET 0.000000 13.600006 -2.842500
						CHANNELS 3 Xrotation Yrotation Zrotation
						JOINT Neck_virtual
						{
							OFFSET 0.000000 0.000000 0.000000
							CHANNELS 3 Xrotation Yrotation Zrotation
							JOINT Neck
							{
								OFFSET 0.000000 9.624100 -2.890100
								CHANNELS 3 Xrotation Yrotation Zrotation
								JOINT Head
								{
									OFFSET 0.000000 14.068802 -1.351900
									CHANNELS 3 Xrotation Yrotation Zrotation
									End Site
									{
										OFFSET 0 0 0
									}
								}
							}
						}
						JOINT LeftShoulder_virtual
						{
							OFFSET 0.000000 0.000000 0.000000
							CHANNELS 3 Xrotation Yrotation Zrotation
							JOINT LeftShoulder
							{
								OFFSET 15.263000 10.923401 -0.547700
								CHANNELS 3 Xrotation Yrotation Zrotation
								JOINT LeftArm
								{
									OFFSET 25.438599 -2.830597 -13.032500
									CHANNELS 3 Xrotation Yrotation Zrotation
									JOINT LeftForeArm
									{
										OFFSET 29.960503 0.000000 0.000000
										CHANNELS 3 Xrotation Yrotation Zrotation
										JOINT LeftHand
										{
											OFFSET 27.849251 0.000000 0.000000
											CHANNELS 3 Xrotation Yrotation Zrotation
											End Site
											{
												OFFSET 0 0 0
											}
										}
									}
								}
							}
						}
						JOINT RightShoulder_virtual
						{
							OFFSET 0.000000 0.000000 0.000000
							CHANNELS 3 Xrotation Yrotation Zrotation
							JOINT RightShoulder
							{
								OFFSET -15.263000 10.923401 -0.547700
								CHANNELS 3 Xrotation Yrotation Zrotation
								JOINT RightArm
								{
									OFFSET -25.438599 -2.830597 -13.032500
									CHANNELS 3 Xrotation Yrotation Zrotation
									JOINT RightForeArm
									{
										OFFSET -29.960503 0.000000 0.000000
										CHANNELS 3 Xrotation Yrotation Zrotation
										JOINT RightHand
										{
											OFFSET -27.849251 0.000000 0.000000
											CHANNELS 3 Xrotation Yrotation Zrotation
											End Site
											{
												OFFSET 0 0 0
											}
										}
									}
								}
							}
						}
					}
				}
			}
		}
	}
}
MOTION
Frames: 12
Frame Time: 0.03333333
-6.186601 84.720245 0.733531 0.000000 0.000000 0.000000 -1.108101 -43.562492 4.834445 -46.388941 -3.856543 19.715047 46.524431 -6.183725 -4.019532 -4.378150 -4.495890 -15.967930 0.000000 0.000000 0.000000 12.361686 -44.707673 2.599533 -20.437821 -17.982507 -20.848372 39.026342 5.107790 1.727807 -15.295637 -0.430595 17.376263 0.000000 0.000000 0.000000 1.855881 -23.051752 0.560666 7.320093 -37.727499 4.081758 3.343084 6.194062 -2.874503 -0.125482 4.849673 -1.317951 0.000000 0.000000 0.000000 -1.267401 5.836050 -1.806887 -3.027953 4.075325 -0.249476 0.000000 0.000000 0.000000 -12.236604 5.582871 -2.629012 -12.413082 10.115371 -10.120784 -0.920150 -12.436725 -42.332088 8.339840 -45.082524 3.548349 0.000000 0.000000 0.000000 -0.420386 4.857250 -1.028680 -3.264537 13.853271 5.193141 8.755473 7.944699 45.586069 2.440516 65.425842 5.591232 0.000000 0.000000 0.000000 
-6.130647 84.693779 0.776137 0.000000 0.000000 0.000000 -1.143965 -43.462703 4.879816 -46.454804 -3.861960 19.782513 46.452779 -6.200143 -4.075857 -4.368868 -4.487963 -16.094504 0.000000 0.000000 0.000000 12.415827 -44.698151 2.627089 -20.390804 -17.981007 -20.836320 38.789884 5.141654 1.731023 -15.476527 -0.418509 17.368929 0.000000 0.000000 0.000000 1.907082 -23.235568 0.657038 7.480038 -37.409909 4.156393 3.190597 6.104723 -2.928151 -0.195254 4.843032 -1.347610 0.000000 0.000000 0.000000 -1.231957 5.877052 -1.801521 -3.050589 4.143499 -0.222157 0.000000 0.000000 0.000000 -12.407939 5.592530 -2.682976 -12.629241 10.226938 -10.042411 -0.533011 -12.934805 -42.112655 8.674088 -45.460417 3.770982 0.000000 0.000000 0.000000 -0.372023 4.906746 -1.064325 -3.224604 13.735842 5.214986 9.046001 7.687475 45.340165 2.307639 65.941180 5.717368 0.000000 0.000000 0.000000 
-6.049070 84.637711 0.850569 0.000000 0.000000 0.000000 -1.208336 -43.299923 4.964360 -46.581658 -3.876381 19.907481 46.316770 -6.228080 -4.177645 -4.360809 -4.470294 -16.324762 0.000000 0.000000 0.000000 12.508805 -44.695873 2.684350 -20.316022 -17.981986 -20.811697 38.363759 5.201984 1.738289 -15.805321 -0.398337 17.355668 0.000000 0.000000 0.000000 1.997454 -23.624438 0.842032 7.675939 -36.782030 4.198523 2.927980 5.941059 -3.018921 -0.312493 4.826508 -1.398169 0.000000 0.000000 0.000000 -1.157917 5.953572 -1.789818 -3.087810 4.268040 -0.170667 0.000000 0.000000 0.000000 -12.715649 5.604739 -2.780764 -13.024126 10.425413 -9.870975 0.190784 -13.811869 -41.673218 9.279279 -46.173189 4.183048 0.000000 0.000000 0.000000 -0.270686 4.993657 -1.128196 -3.147290 13.502093 5.250144 9.521529 7.209949 44.869715 2.025508 66.906689 5.979245 0.000000 0.000000 0.000000 
-5.984698 84.546906 0.942937 0.000000 0.000000 0.000000 -1.292641 -43.128577 5.075603 -46.762491 -3.904575 20.072247 46.130203 -6.260082 -4.306933 -4.369190 -4.440705 -16.620825 0.000000 0.000000 0.000000 12.613245 -44.725537 2.771796 -20.245685 -17.990795 -20.775246 37.827480 5.276318 1.749007 -16.225891 -0.375719 17.336299 0.000000 0.000000 0.000000 2.109962 -24.236117 1.102582 7.728981 -35.861270 4.060594 2.627006 5.728170 -3.121729 -0.441899 4.795761 -1.455879 0.000000 0.000000 0.000000 -1.040697 6.056496 -1.770849 -3.126436 4.429818 -0.100587 0.000000 0.000000 0.000000 -13.101103 5.608060 -2.905787 -13.533822 10.670335 -9.590503 1.163017 -14.870795 -41.030070 10.051904 -47.142956 4.726104 0.000000 0.000000 0.000000 -0.110074 5.098279 -1.208871 -3.035854 13.157045 5.283287 10.018025 6.573799 44.215636 1.561718 68.209268 6.399068 0.000000 0.000000 0.000000 
-5.968628 84.416054 1.046668 0.000000 0.000000 0.000000 -1.394297 -42.993650 5.195159 -46.990824 -3.948685 20.254588 45.911531 -6.289158 -4.444280 -4.406042 -4.398476 -16.941656 0.000000 0.000000 0.000000 12.695852 -44.806601 2.882813 -20.214614 -18.010418 -20.731888 37.269484 5.351087 1.758461 -16.675731 -0.354524 17.305514 0.000000 0.000000 0.000000 2.231092 -25.051554 1.423115 7.501471 -34.676713 3.644630 2.368155 5.493777 -3.214552 -0.548377 4.748366 -1.507643 0.000000 0.000000 0.000000 -0.876456 6.175711 -1.744903 -3.152341 4.609070 -0.018760 0.000000 0.000000 0.000000 -13.498431 5.590732 -3.040447 -14.084515 10.918269 -9.201090 2.277303 -15.900388 -40.235743 10.880893 -48.269490 5.328593 0.000000 0.000000 0.000000 0.114023 5.199730 -1.295399 -2.891890 12.713484 5.295679 10.379389 5.846120 43.435611 0.870247 69.714416 7.014171 0.000000 0.000000 0.000000 
-6.004128 84.242035 1.169153 0.000000 0.000000 0.000000 -1.519050 -42.911333 5.300312 -47.260439 -4.005042 20.430846 45.680800 -6.310724 -4.573867 -4.474777 -4.345240 -17.253703 0.000000 0.000000 0.000000 12.725623 -44.942409 3.000374 -20.249312 -18.038796 -20.693025 36.761212 5.415628 1.756915 -17.103941 -0.334437 17.251598 0.000000 0.000000 0.000000 2.354078 -25.995481 1.786399 6.963797 -33.269800 2.958838 2.219842 5.261548 -3.287697 -0.607242 4.685910 -1.545820 0.000000 0.000000 0.000000 -0.663493 6.302176 -1.713920 -3.153767 4.791018 0.067963 0.000000 0.000000 0.000000 -13.848566 5.544017 -3.170674 -14.607932 11.133342 -8.728052 3.426824 -16.736052 -39.383322 11.673428 -49.444371 5.917583 0.000000 0.000000 0.000000 0.401285 5.281177 -1.380102 -2.713931 12.194195 5.269949 10.509253 5.081546 42.599480 -0.100968 71.291787 7.873729 0.000000 0.000000 0.000000 
-6.066993 84.026237 1.330597 0.000000 0.000000 0.000000 -1.675453 -42.867398 5.368310 -47.561288 -4.063729 20.579111 45.456186 -6.322920 -4.686350 -4.569459 -4.284527 -17.536731 0.000000 0.000000 0.000000 12.682675 -45.116056 3.099552 -20.359592 -18.068536 -20.675444 36.339338 5.464625 1.731650 -17.483254 -0.310950 17.159020 0.000000 0.000000 0.000000 2.474744 -26.947536 2.172408 6.200687 -31.695882 2.110741 2.224209 5.047560 -3.346001 -0.607636 4.613988 -1.570031 0.000000 0.000000 0.000000 -0.402693 6.428778 -1.680816 -3.122743 4.968145 0.153780 0.000000 0.000000 0.000000 -14.107082 5.464013 -3.287851 -15.051512 11.292058 -8.216969 4.518803 -17.295239 -38.589855 12.366554 -50.564611 6.427665 0.000000 0.000000 0.000000 0.746424 5.332366 -1.458730 -2.498263 11.631229 5.194592 10.389507 4.314236 41.779932 -1.393627 72.832418 9.024614 0.000000 0.000000 0.000000 
-6.119996 83.776192 1.556001 0.000000 0.000000 0.000000 -1.864281 -42.831901 5.383465 -47.874278 -4.111601 20.683097 45.251472 -6.325927 -4.778980 -4.678015 -4.220583 -17.784192 0.000000 0.000000 0.000000 12.565394 -45.293863 3.156892 -20.534993 -18.089387 -20.695320 36.003068 5.497959 1.671125 -17.811323 -0.277800 17.013754 0.000000 0.000000 0.000000 2.584205 -27.780664 2.557153 5.363110 -30.024630 1.249899 2.393025 4.860441 -3.403911 -0.549691 4.540386 -1.585689 0.000000 0.000000 0.000000 -0.097677 6.550291 -1.648245 -3.055007 5.138886 0.234639 0.000000 0.000000 0.000000 -14.246554 5.352150 -3.388175 -15.382778 11.383146 -7.718219 5.484018 -17.580600 -37.967731 12.926997 -51.545474 6.807285 0.000000 0.000000 0.000000 1.139821 5.349780 -1.528962 -2.241904 11.062384 5.066758 10.068396 3.562751 41.038311 -3.014130 74.255549 10.486202 0.000000 0.000000 0.000000 
-6.132022 83.505470 1.865255 0.000000 0.000000 0.000000 -2.069634 -42.778916 5.344488 -48.169120 -4.137363 20.736135 45.075236 -6.321236 -4.853573 -4.786916 -4.157451 -17.999405 0.000000 0.000000 0.000000 12.393252 -45.434456 3.162661 -20.746968 -18.092165 -20.759366 35.726507 5.518403 1.569257 -18.101707 -0.230436 16.808886 0.000000 0.000000 0.000000 2.665763 -28.405631 2.914180 4.602377 -28.334971 0.504151 2.712788 4.703393 -3.477083 -0.439253 4.472506 -1.600688 0.000000 0.000000 0.000000 0.244927 6.662947 -1.617647 -2.949547 5.304243 0.308551 0.000000 0.000000 0.000000 -14.256557 5.214782 -3.470756 -15.590103 11.405758 -7.270115 6.280095 -17.656474 -37.598825 13.345557 -52.331239 7.023846 0.000000 0.000000 0.000000 1.568354 5.335640 -1.589078 -1.946606 10.526203 4.892491 9.634010 2.842513 40.410213 -4.907063 75.509346 12.221375 0.000000 0.000000 0.000000 
-6.092145 83.231628 2.266010 0.000000 0.000000 0.000000 -2.258945 -42.698880 5.266964 -48.408593 -4.135718 20.743100 44.931105 -6.311289 -4.913553 -4.885414 -4.098759 -18.189907 0.000000 0.000000 0.000000 12.203226 -45.500005 3.129092 -20.956417 -18.072494 -20.857958 35.478417 5.528674 1.427807 -18.370644 -0.168716 16.547694 0.000000 0.000000 0.000000 2.699963 -28.796327 3.219521 4.020035 -26.707822 -0.055532 3.155169 4.576444 -3.575681 -0.283399 4.415373 -1.622278 0.000000 0.000000 0.000000 0.615384 6.764175 -1.589214 -2.808461 5.464560 0.375376 0.000000 0.000000 0.000000 -14.142652 5.061983 -3.536058 -15.680834 11.367647 -6.890105 6.890379 -17.613637 -37.520982 13.631175 -52.900368 7.067210 0.000000 0.000000 0.000000 2.016082 5.296561 -1.637592 -1.621894 10.057250 4.684558 9.187456 2.176439 39.898622 -6.941414 76.568811 14.119016 0.000000 0.000000 0.000000 
-6.012951 82.973007 2.751703 0.000000 0.000000 0.000000 -2.393075 -42.598128 5.178519 -48.558407 -4.108394 20.718612 44.818188 -6.299544 -4.961458 -4.968572 -4.048105 -18.362378 0.000000 0.000000 0.000000 12.039965 -45.466035 3.088486 -21.124192 -18.032475 -20.965346 35.237567 5.529499 1.256115 -18.627773 -0.097754 16.243202 0.000000 0.000000 0.000000 2.673696 -28.985762 3.457395 3.649711 -25.220644 -0.414978 3.687216 4.477460 -3.702093 -0.088547 4.371059 -1.655401 0.000000 0.000000 0.000000 1.001410 6.852625 -1.562559 -2.636952 5.617988 0.436213 0.000000 0.000000 0.000000 -13.924174 4.905607 -3.585272 -15.677096 11.283753 -6.576319 7.319674 -17.535783 -37.728732 13.805315 -53.263321 6.949988 0.000000 0.000000 0.000000 2.465556 5.242057 -1.673643 -1.285336 9.682868 4.459079 8.822491 1.595979 39.477954 -8.922566 77.432222 16.001965 0.000000 0.000000 0.000000 
-5.923959 82.745789 3.303389 0.000000 0.000000 0.000000 -2.441507 -42.489514 5.108443 -48.598538 -4.062061 20.681842 44.730752 -6.290529 -4.997881 -5.038850 -4.009348 -18.519718 0.000000 0.000000 0.000000 11.942806 -45.327171 3.081176 -21.221101 -17.979720 -21.047817 34.997186 5.519613 1.068557 -18.874915 -0.026665 15.914874 0.000000 0.000000 0.000000 2.587193 -29.039137 3.623158 3.464509 -23.945970 -0.597385 4.278010 4.402567 -3.853009 0.139250 4.339326 -1.702567 0.000000 0.000000 0.000000 1.389794 6.928254 -1.537599 -2.442961 5.760845 0.492545 0.000000 0.000000 0.000000 -13.629680 4.756907 -3.620446 -15.609180 11.174147 -6.316944 7.591743 -17.477049 -38.182581 13.896782 -53.452350 6.703491 0.000000 0.000000 0.000000 2.899992 5.182797 -1.697473 -0.959417 9.421187 4.231680 8.613272 1.132868 39.106945 -10.632446 78.115965 17.664203 0.000000 0.000000 0.000000 
